HIERARCHY
ROOT Hips
{
	OFFSET 0.00000 0.00000 0.00000
	CHANNELS 6 Xposition Yposition Zposition Zrotation Yrotation Xrotation 
	JOINT LHipJoint
	{
		OFFSET 0 0 0
		CHANNELS 3 Zrotation Yrotation Xrotation
		JOINT LeftHip
		{
			OFFSET 1.85742 -1.74412 1.01653
			CHANNELS 3 Zrotation Yrotation Xrotation
			JOINT LeftKnee
			{
				OFFSET 2.54803 -7.00067 0.00000
				CHANNELS 3 Zrotation Yrotation Xrotation
				JOINT LeftAnkle
				{
					OFFSET 2.51202 -6.90173 0.00000
					CHANNELS 3 Zrotation Yrotation Xrotation
					JOINT LeftToe
					{
						OFFSET 0.17547 -0.48209 1.64281
						CHANNELS 3 Zrotation Yrotation Xrotation
						End Site
						{
							OFFSET 0.00000 -0.00000 0.86587
						}
					}
				}
			}
		}
	}
	JOINT RHipJoint
	{
		OFFSET 0 0 0
		CHANNELS 3 Zrotation Yrotation Xrotation
		JOINT RightHip
		{
			OFFSET -1.95533 -1.74413 1.01654
			CHANNELS 3 Zrotation Yrotation Xrotation
			JOINT RightKnee
			{
				OFFSET -2.49465 -6.85400 0.00000
				CHANNELS 3 Zrotation Yrotation Xrotation
				JOINT RightAnkle
				{
					OFFSET -2.54783 -7.00010 0.00000
					CHANNELS 3 Zrotation Yrotation Xrotation
					JOINT RightToe
					{
						OFFSET -0.18513 -0.50864 1.69288
						CHANNELS 3 Zrotation Yrotation Xrotation
						End Site
						{
							OFFSET -0.00000 -0.00000 0.89242
						}
					}
				}
			}
		}
	}
	JOINT lowerback
	{
		OFFSET 0 0 0
		CHANNELS 3 Zrotation Yrotation Xrotation
		JOINT Chest
		{
			OFFSET 0.02173 2.16290 -0.15998
			CHANNELS 3 Zrotation Yrotation Xrotation
			JOINT Chest2
			{
				OFFSET 0.00940 2.17323 -0.00467
				CHANNELS 3 Zrotation Yrotation Xrotation
				JOINT lowerneck
				{
					OFFSET 0 0 0
					CHANNELS 3 Zrotation Yrotation Xrotation
					JOINT Neck
					{
						OFFSET 0.01475 1.85823 0.31113
						CHANNELS 3 Zrotation Yrotation Xrotation
						JOINT Head
						{
							OFFSET 0.01902 1.88783 -0.37187
							CHANNELS 3 Zrotation Yrotation Xrotation
							End Site
							{
								OFFSET 0.00489 1.93211 -0.16169
							}
						}
					}
				}
				JOINT LeftCollar
				{
					OFFSET 0 0 0
					CHANNELS 3 Zrotation Yrotation Xrotation
					JOINT LeftShoulder
					{
						OFFSET 3.34199 1.32384 -0.07862
CHANNELS 3 Zrotation Xrotation Yrotation
						JOINT LeftElbow
						{
OFFSET 0 -5.279500 0.000000
CHANNELS 3 Zrotation Xrotation Yrotation
							JOINT LeftWrist
							{
OFFSET 0 -3.535040 0.000000
CHANNELS 3 Zrotation Xrotation Yrotation
								JOINT lhand
								{
									OFFSET 0 0 0
CHANNELS 3 Zrotation Xrotation Yrotation
									JOINT LFingers
									{
OFFSET 0 -0.667950 0.000000
CHANNELS 3 Zrotation Xrotation Yrotation
										End Site
										{
OFFSET 0 -0.538520 0.000000
										}
									}
								}
								JOINT LThumb
								{
OFFSET 0 0.000000 0.000000
CHANNELS 3 Zrotation Xrotation Yrotation
									End Site
									{
OFFSET 0 -0.546740 0.546740
									}
								}
							}
						}
					}
				}
				JOINT RightCollar
				{
					OFFSET 0 0 0
					CHANNELS 3 Zrotation Yrotation Xrotation
					JOINT RightShoulder
					{
						OFFSET -3.16149 1.45719 -0.50507
CHANNELS 3 Zrotation Xrotation Yrotation
						JOINT RightElbow
						{
OFFSET 0 -5.250350 0.000000
CHANNELS 3 Zrotation Xrotation Yrotation
							JOINT RightWrist
							{
OFFSET 0 -3.588840 0.000000
CHANNELS 3 Zrotation Xrotation Yrotation
								JOINT rhand
								{
									OFFSET 0 0 0
CHANNELS 3 Zrotation Xrotation Yrotation
									JOINT RFingers
									{
OFFSET 0 -0.779240 0.000000
CHANNELS 3 Zrotation Xrotation Yrotation
										End Site
										{
OFFSET 0 -0.628240 0.000000
										}
									}
								}
								JOINT RThumb
								{
OFFSET 0 0.000000 0.000000
CHANNELS 3 Zrotation Xrotation Yrotation
									End Site
									{
OFFSET 0 -0.637830 0.637830
									}
								}
							}
						}
					}
				}
			}
		}
	}
}
MOTION
Frames: 8
Frame Time: 0.008333333333333333
6.029700 17.452100 -11.656900 -4.445900 2.401900 3.972500 0.000000 0.000000 0.000000 -10.891000 -13.095100 -9.269400 2.262300 9.392300 27.030500 0.733600 2.784100 -17.421500 0.811500 -5.748700 -16.057000 0.000000 0.000000 0.000000 24.013900 -5.032600 3.572400 0.000000 -0.000000 0.000000 0.142100 -10.517100 -12.496800 -0.320500 3.639200 -10.063800 3.245200 1.622700 2.060700 0.709400 2.293200 -1.659000 -1.187300 1.087400 -2.763000 4.052100 3.476900 -23.229000 0.499100 3.299600 27.167900 0.104900 1.959400 13.044600 0.000000 -0.000000 0.000000 4.596100 5.401900 -37.869900 17.767700 -27.858700 4.440200 33.557400 0.379200 -54.160000 0.000000 0.000000 0.000000 -7.125000 0.000000 0.000000 -79.712700 84.677200 74.410100 0.000000 -0.000000 0.000000 -3.019300 2.171500 25.266300 -12.779300 -20.963000 -2.373700 -21.610200 -14.497700 -12.403000 0.000000 0.000000 0.000000 7.125000 0.000000 -0.000000 3.906800 16.691200 2.626300
6.029253 17.445939 -11.656231 -4.355725 2.240195 3.853721 0.000000 0.000000 0.000000 -11.030769 -12.862263 -9.104461 2.243491 9.355802 26.914743 0.838707 2.297289 -18.274786 1.358375 -7.368053 -20.814629 0.000000 0.000000 0.000000 23.857639 -4.940348 3.750159 0.000000 0.000000 0.000000 0.124961 -10.321567 -12.503473 -0.331287 3.698912 -10.231108 3.082571 1.654743 2.214745 0.694286 2.334271 -1.581182 -1.117398 1.111385 -2.773219 4.138390 3.470831 -23.137544 0.435040 3.282029 27.017497 0.059225 1.950706 12.967492 0.000000 0.000000 0.000000 4.571889 5.340266 -37.773890 17.810142 -27.913414 4.460026 33.682544 0.553790 -54.098309 0.000000 0.000000 0.000000 -7.125000 0.000000 0.000000 -79.339239 84.735645 74.100670 0.000000 0.000000 0.000000 -3.033672 2.173672 26.228848 -13.017151 -21.312308 -2.459573 -23.593089 -21.834041 -25.250289 0.000000 0.000000 0.000000 7.125000 0.000000 0.000000 3.647077 2.855604 3.585487
6.030963 17.447297 -11.652333 -4.298650 2.154253 3.844107 0.000000 0.000000 0.000000 -11.110060 -12.827979 -9.046651 2.238769 9.346585 26.885696 0.949805 1.798003 -19.141650 1.823367 -8.482963 -24.194014 0.000000 0.000000 0.000000 23.768854 -4.866894 3.787616 0.000000 0.000000 0.000000 0.126084 -10.287986 -12.422594 -0.338865 3.740680 -10.348235 2.970322 1.674447 2.257700 0.678086 2.356947 -1.544576 -1.073154 1.125188 -2.762293 4.115017 3.479622 -23.139158 0.551402 3.266439 27.053507 0.105880 1.958134 12.979715 0.000000 0.000000 0.000000 4.613490 5.286495 -37.732484 17.872976 -27.994255 4.489422 33.749637 0.602116 -53.975575 0.000000 0.000000 0.000000 -7.125000 0.000000 0.000000 -78.162320 84.778747 72.984035 0.000000 0.000000 0.000000 -3.026725 2.046301 26.529744 -13.193887 -21.570648 -2.524144 -21.876820 -22.250682 -28.370691 0.000000 0.000000 0.000000 7.125000 0.000000 0.000000 5.063699 -0.104613 5.110457
6.032183 17.451167 -11.646726 -4.389320 2.187834 3.904998 0.000000 0.000000 0.000000 -10.968326 -12.832373 -9.106947 2.242430 9.353739 26.908220 1.100671 0.904701 -20.173298 2.480876 -9.802538 -28.339991 0.000000 0.000000 0.000000 23.883282 -4.864007 3.711580 0.000000 0.000000 0.000000 0.137455 -10.363199 -12.323324 -0.330371 3.693996 -10.217380 3.048669 1.654614 2.200798 0.701526 2.331066 -1.524632 -1.089420 1.112034 -2.708729 3.975781 3.497238 -23.163446 0.736450 3.285044 27.094070 0.205025 1.978057 12.994809 0.000000 0.000000 0.000000 4.670399 5.221921 -37.984724 17.934658 -28.073386 4.518466 35.121000 1.123027 -53.548084 0.000000 0.000000 0.000000 -7.125000 0.000000 0.000000 -76.508587 85.385548 71.965783 0.000000 0.000000 0.000000 -3.111075 1.790689 26.362371 -13.188026 -21.562062 -2.522000 -26.353581 -19.934382 -18.759473 0.000000 0.000000 0.000000 7.125000 0.000000 0.000000 1.182858 9.224959 0.978199
6.035152 17.453726 -11.639009 -4.340079 2.247830 3.955334 0.000000 0.000000 0.000000 -11.001899 -12.856056 -9.149464 2.246001 9.360709 26.930301 1.086920 0.842472 -20.024874 2.273029 -9.412704 -27.095336 0.000000 0.000000 0.000000 23.834163 -4.910384 3.661924 0.000000 0.000000 0.000000 0.148665 -10.450055 -12.246367 -0.316213 3.614678 -9.995161 3.005035 1.603938 2.135812 0.684035 2.258873 -1.518406 -1.077834 1.077356 -2.669432 4.016233 3.542065 -23.127928 0.710539 3.344091 27.086151 0.198152 2.004567 12.986855 0.000000 0.000000 0.000000 4.707287 5.198717 -38.024325 17.965945 -28.113554 4.533191 35.150628 0.888165 -53.439484 0.000000 0.000000 0.000000 -7.125000 0.000000 0.000000 -75.249149 85.408330 70.750347 0.000000 0.000000 0.000000 -3.167431 1.673948 26.406774 -13.240200 -21.638079 -2.541156 -26.273502 -19.836874 -18.689153 0.000000 0.000000 0.000000 7.125000 0.000000 0.000000 1.227468 9.314994 1.012851
6.038238 17.453324 -11.630940 -4.304462 2.246435 3.954238 0.000000 0.000000 0.000000 -11.038224 -12.707857 -9.180352 2.246304 9.361275 26.932191 1.091689 0.726991 -20.023461 2.261173 -9.389680 -27.022391 0.000000 0.000000 0.000000 23.756951 -4.924044 3.694647 0.000000 0.000000 0.000000 0.139883 -10.335725 -12.226838 -0.293427 3.483201 -9.626924 2.901371 1.582970 2.155419 0.716001 2.229302 -1.529780 -0.986737 1.064309 -2.698425 4.122691 3.578258 -23.042222 0.527522 3.418632 27.097563 0.121479 2.022854 12.981649 0.000000 0.000000 0.000000 4.666140 5.200276 -37.970310 17.962148 -28.108624 4.531360 35.425972 1.016913 -53.329356 0.000000 0.000000 0.000000 -7.125000 0.000000 0.000000 -74.555362 85.532627 70.192561 0.000000 0.000000 0.000000 -3.251875 1.589393 26.179070 -13.250024 -21.652408 -2.544760 -25.915616 -19.473598 -19.170898 0.000000 0.000000 0.000000 7.125000 0.000000 0.000000 1.508965 8.852531 1.259784
6.039104 17.451296 -11.621271 -4.307876 2.229312 3.973273 0.000000 0.000000 0.000000 -11.029972 -12.514653 -9.250129 2.249955 9.368470 26.954855 1.094515 0.615724 -20.006622 2.335105 -9.531706 -27.473186 0.000000 0.000000 0.000000 23.730491 -4.917060 3.726214 0.000000 0.000000 0.000000 0.122860 -10.178874 -12.301722 -0.271575 3.351695 -9.259466 2.855826 1.574429 2.134413 0.737867 2.216092 -1.526127 -0.937705 1.059022 -2.685835 4.022993 3.564814 -23.129121 0.660025 3.391150 27.319196 0.188963 2.020372 13.084749 0.000000 0.000000 0.000000 4.615357 5.182219 -37.805900 17.949114 -28.091980 4.525244 35.496156 1.224954 -53.316519 0.000000 0.000000 0.000000 -7.125000 0.000000 0.000000 -74.571525 85.563194 70.238796 0.000000 0.000000 0.000000 -3.352348 1.570763 26.135869 -13.346970 -21.793422 -2.580738 -25.652321 -19.154254 -19.653037 0.000000 0.000000 0.000000 7.125000 0.000000 0.000000 1.729232 8.375650 1.459888
6.039072 17.449901 -11.610989 -4.319038 2.199291 3.990582 0.000000 0.000000 0.000000 -11.016110 -12.409371 -9.270477 2.251372 9.371245 26.963591 1.097757 0.528687 -20.003586 2.360607 -9.579862 -27.626529 0.000000 0.000000 0.000000 23.724000 -4.895877 3.757498 0.000000 0.000000 0.000000 0.112372 -10.080356 -12.348061 -0.243549 3.175794 -8.768646 2.868142 1.586450 2.118618 0.715240 2.230611 -1.500301 -0.967378 1.066576 -2.648362 3.965916 3.521256 -23.327237 0.843107 3.280719 27.540019 0.256426 1.993140 13.209606 0.000000 0.000000 0.000000 4.662841 5.161393 -37.652009 17.984718 -28.137568 4.542045 35.026598 1.027147 -53.355162 0.000000 0.000000 0.000000 -7.125000 0.000000 0.000000 -73.911394 85.362401 69.392148 0.000000 0.000000 0.000000 -3.319861 1.544019 26.213405 -13.514752 -22.036708 -2.643302 -25.708946 -18.513930 -18.647505 0.000000 0.000000 0.000000 7.125000 0.000000 0.000000 1.589126 9.453424 1.307115
